<?xml version="1.0" standalone="no"?>
<!DOCTYPE svg PUBLIC "-//W3C//DTD SVG 20010904//EN"
 "http://www.w3.org/TR/2001/REC-SVG-20010904/DTD/svg10.dtd">
<svg version="1.0" xmlns="http://www.w3.org/2000/svg"
 width="674.000000pt" height="1280.000000pt" viewBox="0 0 674.000000 1280.000000"
 preserveAspectRatio="xMidYMid meet">
<metadata>
Created by potrace 1.15, written by Peter Selinger 2001-2017
</metadata>
<g transform="translate(0.000000,1280.000000) scale(0.100000,-0.100000)"
fill="#000000" stroke="none">
<path d="M179 12791 c-77 -25 -132 -76 -159 -148 -20 -53 -20 -79 -20 -2047 0
-2155 -2 -2057 52 -2226 106 -334 409 -568 780 -605 l68 -7 2 -3591 3 -3592
23 -74 c43 -140 112 -254 200 -331 156 -138 370 -196 572 -156 261 52 445 230
523 503 l22 78 3 3582 2 3582 58 6 c321 34 592 229 731 527 83 177 76 -43 76
2273 l0 2060 -21 40 c-55 103 -151 148 -262 124 -64 -13 -108 -42 -147 -98
l-30 -43 -5 -1486 -5 -1487 -202 -3 -203 -2 -2 1467 c-3 1196 -6 1475 -17
1508 -7 22 -34 61 -60 86 -70 70 -155 87 -241 48 -63 -28 -97 -64 -120 -126
-20 -53 -20 -78 -20 -1518 l0 -1465 -210 0 -210 0 -2 1473 c-3 1394 -4 1474
-21 1512 -40 88 -113 135 -212 135 -37 0 -76 -8 -101 -19 -53 -24 -109 -91
-123 -146 -8 -31 -11 -471 -11 -1499 l0 -1456 -200 0 -200 0 0 1434 c0 929 -4
1452 -10 1487 -22 118 -106 197 -217 205 -32 2 -70 0 -84 -5z"/>
<path d="M5480 12771 c-196 -43 -363 -133 -501 -271 -136 -135 -215 -273 -273
-472 -53 -185 -51 -14 -51 -3608 l0 -3345 362 -3 363 -2 2 -2233 3 -2232 22
-78 c32 -110 88 -211 161 -289 134 -142 295 -210 498 -209 118 0 198 18 299
66 171 83 283 220 347 426 l23 74 3 5555 c2 4053 0 5582 -8 5655 -55 486 -322
823 -755 951 -124 36 -365 44 -495 15z"/>
</g>
</svg>
